<?xml version="1.0" encoding="UTF-8"?><svg xmlns="http://www.w3.org/2000/svg" xmlns:xlink="http://www.w3.org/1999/xlink" height="173.7" preserveAspectRatio="xMidYMid meet" version="1.0" viewBox="83.2 124.2 255.1 173.7" width="255.1" zoomAndPan="magnify"><g><g><g><g><g id="change1_1"><path d="M321.339,266.087c0,16.165-13.546,29.267-30.261,29.267H132.222c-16.712,0-30.259-13.102-30.259-29.267 v-112.6c0-16.165,13.547-29.267,30.259-29.267h158.856c16.715,0,30.261,13.102,30.261,29.267V266.087z" fill="#002E35"/></g></g><g><g id="change2_13"><path d="M303.464,250.993c0,12.065-11.342,21.847-25.331,21.847H145.164c-13.986,0-25.324-9.781-25.324-21.847 v-84.057c0-12.065,11.338-21.847,25.324-21.847h132.969c13.989,0,25.331,9.781,25.331,21.847V250.993z" fill="#FFF"/></g></g><g><g id="change2_9"><path d="M217.854,135.339c0,3.918-3.181,7.093-7.097,7.093s-7.095-3.175-7.095-7.093 c0-3.917,3.179-7.095,7.095-7.095S217.854,131.422,217.854,135.339z" fill="#FFF"/></g></g><g><g id="change3_1"><path d="M87.025,264.394c-2.407,3.455-3.826,7.649-3.826,12.182c0,11.793,9.56,21.353,21.349,21.353h212.417 c11.792,0,21.352-9.56,21.352-21.353c0-4.532-1.422-8.727-3.826-12.182H87.025z" fill="#54AABA"/></g></g><g><g id="change1_2"><path d="M167.643 264.394H248.779V283.707H167.643z" fill="#002E35"/></g></g></g><g><g><g id="change1_3"><path d="M277.053,205.632c0,10.969-8.894,19.862-19.862,19.862h-93.594c-10.969,0-19.857-8.894-19.857-19.862 l0,0c0-10.968,8.889-19.86,19.857-19.86h93.594C268.159,185.771,277.053,194.664,277.053,205.632L277.053,205.632z" fill="#002E35"/></g></g><g><g><g><g id="change2_2"><path d="M168.483,216.421c-0.708,0-1.284-0.575-1.284-1.284v-19.011c0-0.709,0.576-1.284,1.284-1.284 c0.709,0,1.284,0.575,1.284,1.284v19.011C169.768,215.846,169.192,216.421,168.483,216.421z" fill="#FFF"/></g></g><g><g id="change2_15"><path d="M161.328,213.637c-0.33,0-0.657-0.125-0.909-0.375c-0.501-0.502-0.501-1.315,0-1.816l13.448-13.448 c0.502-0.5,1.313-0.5,1.816,0c0.501,0.502,0.501,1.315,0,1.817l-13.447,13.447 C161.984,213.512,161.657,213.637,161.328,213.637z" fill="#FFF"/></g></g><g><g id="change2_4"><path d="M175.207,213.637c-0.329,0-0.657-0.125-0.908-0.375l-13.447-13.447c-0.501-0.502-0.501-1.315,0-1.817 c0.503-0.5,1.314-0.5,1.816,0l13.447,13.448c0.502,0.501,0.502,1.314,0,1.816 C175.864,213.512,175.536,213.637,175.207,213.637z" fill="#FFF"/></g></g><g><g id="change2_6"><path d="M177.991,206.916h-19.016c-0.708,0-1.283-0.575-1.283-1.284c0-0.708,0.575-1.284,1.283-1.284h19.016 c0.708,0,1.284,0.576,1.284,1.284C179.275,206.341,178.699,206.916,177.991,206.916z" fill="#FFF"/></g></g></g><g><g><g id="change2_1"><path d="M203.431,216.421c-0.708,0-1.283-0.575-1.283-1.284v-19.011c0-0.709,0.575-1.284,1.283-1.284 c0.709,0,1.284,0.575,1.284,1.284v19.011C204.715,215.846,204.14,216.421,203.431,216.421z" fill="#FFF"/></g></g><g><g id="change2_7"><path d="M196.277,213.637c-0.329,0-0.656-0.125-0.908-0.375c-0.501-0.502-0.501-1.314,0-1.816l13.445-13.448 c0.502-0.5,1.313-0.5,1.816,0c0.501,0.502,0.501,1.314,0,1.817l-13.444,13.447 C196.935,213.512,196.606,213.637,196.277,213.637z" fill="#FFF"/></g></g><g><g id="change2_11"><path d="M210.152,213.637c-0.329,0-0.657-0.125-0.908-0.375l-13.445-13.447c-0.501-0.503-0.501-1.315,0-1.817 c0.503-0.5,1.314-0.5,1.816,0l13.445,13.448c0.501,0.502,0.501,1.314,0,1.816 C210.81,213.512,210.481,213.637,210.152,213.637z" fill="#FFF"/></g></g><g><g id="change2_3"><path d="M212.94,206.916h-19.019c-0.708,0-1.283-0.575-1.283-1.284c0-0.708,0.575-1.284,1.283-1.284h19.019 c0.708,0,1.283,0.576,1.283,1.284C214.224,206.341,213.648,206.916,212.94,206.916z" fill="#FFF"/></g></g></g><g><g><g id="change2_8"><path d="M235.833,216.421c-0.708,0-1.283-0.575-1.283-1.284v-19.011c0-0.709,0.575-1.284,1.283-1.284 c0.709,0,1.284,0.575,1.284,1.284v19.011C237.117,215.846,236.542,216.421,235.833,216.421z" fill="#FFF"/></g></g><g><g id="change2_12"><path d="M228.679,213.637c-0.329,0-0.657-0.125-0.908-0.375c-0.501-0.502-0.501-1.315,0-1.816l13.446-13.448 c0.502-0.5,1.313-0.5,1.816,0c0.501,0.502,0.501,1.315,0,1.817l-13.446,13.447 C229.336,213.512,229.008,213.637,228.679,213.637z" fill="#FFF"/></g></g><g><g id="change2_5"><path d="M242.555,213.637c-0.329,0-0.657-0.125-0.908-0.375l-13.441-13.447c-0.501-0.503-0.501-1.315,0-1.817 c0.504-0.5,1.315-0.498,1.816,0l13.441,13.448c0.501,0.502,0.501,1.314,0,1.816 C243.212,213.512,242.883,213.637,242.555,213.637z" fill="#FFF"/></g></g><g><g id="change2_10"><path d="M245.341,206.916h-19.015c-0.709,0-1.284-0.575-1.284-1.284c0-0.708,0.575-1.284,1.284-1.284h19.015 c0.709,0,1.284,0.576,1.284,1.284C246.625,206.341,246.05,206.916,245.341,206.916z" fill="#FFF"/></g></g></g></g><g><g id="change2_14"><path d="M267.809,216.421h-14.512c-0.708,0-1.283-0.575-1.283-1.284c0-0.708,0.575-1.283,1.283-1.283h14.512 c0.709,0,1.284,0.575,1.284,1.283C269.093,215.846,268.518,216.421,267.809,216.421z" fill="#FFF"/></g></g></g></g></g></svg>